<?xml version="1.0" standalone="no"?>
<!DOCTYPE svg PUBLIC "-//W3C//DTD SVG 20010904//EN"
 "http://www.w3.org/TR/2001/REC-SVG-20010904/DTD/svg10.dtd">
<svg version="1.0" xmlns="http://www.w3.org/2000/svg"
 width="896.000000pt" height="896.000000pt" viewBox="0 0 896.000000 896.000000"
 preserveAspectRatio="xMidYMid meet">
<metadata>
Created by potrace 1.14, written by Peter Selinger 2001-2017
</metadata>
<g transform="translate(0.000000,896.000000) scale(0.100000,-0.100000)"
fill="#000000" stroke="none">
<path d="M4349 8956 c-2 -2 -23 -6 -47 -10 -23 -3 -71 -17 -105 -32 -34 -14
-71 -28 -82 -31 -11 -4 -22 -9 -25 -13 -3 -3 -32 -20 -65 -36 -69 -34 -221
-115 -280 -148 -22 -12 -65 -36 -95 -53 -82 -45 -147 -82 -223 -124 -38 -22
-73 -39 -78 -39 -5 0 -9 -4 -9 -10 0 -5 -6 -10 -14 -10 -7 0 -25 -9 -38 -20
-14 -10 -28 -16 -32 -13 -3 3 -6 1 -6 -5 0 -7 -4 -12 -9 -12 -12 0 -155 -83
-159 -92 -2 -5 -12 -8 -22 -8 -10 0 -20 -4 -22 -8 -1 -4 -34 -26 -73 -47 -38
-22 -77 -44 -86 -50 -9 -5 -36 -21 -60 -34 -24 -13 -47 -29 -51 -35 -4 -6 -8
-7 -8 -3 0 4 -20 -6 -44 -22 -24 -17 -46 -27 -50 -24 -3 4 -6 2 -6 -4 0 -6 -8
-13 -17 -16 -10 -4 -36 -18 -58 -31 -22 -14 -49 -30 -60 -36 -11 -6 -33 -19
-50 -30 -16 -11 -37 -23 -45 -27 -8 -3 -39 -21 -68 -40 -29 -18 -57 -33 -62
-33 -6 0 -10 -4 -10 -10 0 -5 -4 -10 -9 -10 -8 0 -201 -109 -211 -120 -7 -7
-80 -50 -179 -106 -19 -10 -40 -22 -45 -27 -26 -18 -84 -54 -118 -72 -21 -11
-38 -23 -38 -27 0 -5 -5 -8 -10 -8 -6 0 -39 -18 -74 -40 -35 -22 -68 -40 -74
-40 -6 0 -12 -3 -14 -7 -3 -9 -84 -63 -93 -63 -3 0 -27 -15 -54 -32 -27 -18
-120 -77 -208 -132 -162 -101 -384 -246 -393 -256 -3 -3 -18 -14 -34 -24 -47
-30 -117 -98 -145 -141 -43 -67 -64 -134 -77 -250 -3 -27 -7 -66 -10 -85 -28
-229 -27 -3399 1 -3725 19 -226 34 -311 61 -363 8 -15 14 -31 14 -35 0 -5 7
-15 15 -23 8 -8 20 -23 27 -33 7 -9 40 -37 73 -62 33 -24 64 -48 70 -52 13
-11 316 -207 352 -228 15 -9 83 -51 151 -93 68 -42 128 -76 133 -76 5 0 9 -4
9 -9 0 -5 8 -11 17 -15 10 -3 32 -15 48 -26 17 -11 41 -25 55 -32 14 -7 27
-15 30 -18 3 -3 16 -11 30 -19 14 -8 85 -50 158 -93 73 -43 137 -78 142 -78 6
0 10 -4 10 -9 0 -5 8 -11 18 -15 9 -3 24 -10 32 -15 25 -17 152 -91 155 -91 2
0 47 -26 102 -58 54 -32 105 -62 113 -65 8 -4 42 -23 75 -43 33 -19 68 -38 78
-41 9 -3 17 -9 17 -14 0 -5 4 -9 10 -9 5 0 48 -23 96 -50 48 -28 88 -50 90
-50 2 0 25 -13 52 -29 52 -31 132 -75 204 -114 24 -13 104 -57 178 -99 74 -41
170 -93 213 -116 42 -23 112 -61 155 -84 145 -79 297 -158 462 -240 91 -46
168 -87 171 -91 3 -5 9 -8 13 -8 3 0 30 -10 58 -23 133 -60 153 -68 163 -70 5
-1 15 -5 22 -9 28 -17 108 -4 170 28 15 8 32 15 36 15 14 0 412 194 415 202 2
5 10 8 18 8 13 0 52 18 64 30 3 3 64 34 135 70 72 36 132 67 135 70 3 3 30 18
60 32 69 35 342 181 448 240 19 10 73 40 120 65 48 25 89 49 92 52 3 3 32 20
65 36 33 17 62 33 63 38 2 4 10 7 17 7 8 0 20 7 29 15 8 9 17 15 18 13 4 -3
161 83 181 100 9 8 17 12 17 8 0 -4 13 2 29 13 15 11 39 25 52 31 13 6 40 20
59 31 28 17 211 122 555 319 17 9 88 51 158 93 71 43 133 77 138 77 5 0 9 5 9
10 0 6 4 10 10 10 5 0 69 37 142 81 73 45 156 95 183 112 28 16 53 34 56 39 3
5 8 8 10 7 4 -3 239 148 249 160 3 3 23 19 45 36 91 68 155 157 159 220 0 14
3 25 6 25 3 0 6 8 6 18 1 9 4 35 7 57 10 61 16 145 24 305 8 180 8 3342 0
3500 -16 286 -19 313 -47 420 -10 42 -75 150 -89 150 -3 0 -22 15 -41 33 -20
17 -43 37 -52 42 -8 6 -61 40 -117 78 -56 37 -104 67 -107 67 -2 0 -10 5 -17
11 -23 19 -425 269 -434 269 -2 0 -24 14 -48 30 -24 17 -48 30 -54 30 -6 0
-11 5 -11 10 0 6 -4 10 -10 10 -5 0 -40 19 -77 42 -38 23 -77 46 -88 52 -11 6
-87 52 -170 101 -171 102 -217 129 -262 152 -18 9 -33 20 -33 25 0 4 -4 8 -10
8 -8 0 -138 72 -180 100 -8 6 -31 18 -50 28 -19 9 -37 20 -40 23 -3 4 -29 19
-58 35 -29 16 -69 39 -90 51 -20 12 -48 28 -62 36 -14 7 -85 48 -158 90 -74
42 -138 77 -143 77 -5 0 -9 4 -9 9 0 5 -8 11 -17 14 -10 4 -36 17 -58 29 -22
13 -71 41 -110 63 -38 22 -83 48 -100 57 -16 10 -42 23 -57 29 -16 6 -28 16
-28 22 0 6 -3 8 -6 4 -3 -3 -27 8 -52 24 -25 16 -52 29 -59 29 -7 0 -13 4 -13
9 0 5 -12 14 -27 20 -27 10 -103 51 -113 61 -3 3 -34 20 -70 39 -36 18 -114
60 -175 93 -169 91 -407 206 -440 213 -33 8 -220 16 -226 11z m454 -3227 c52
-28 56 -40 53 -129 -4 -73 -12 -126 -40 -259 -11 -52 -57 -221 -66 -245 -5
-14 -8 -26 -5 -26 2 0 -2 -18 -10 -41 -8 -22 -14 -43 -13 -47 1 -4 -2 -14 -5
-22 -6 -15 -39 -125 -43 -145 -2 -9 -37 -127 -79 -265 -8 -25 -28 -90 -45
-145 -17 -55 -42 -135 -55 -177 -13 -42 -28 -86 -35 -97 -6 -12 -8 -21 -5 -21
3 0 -2 -16 -10 -36 -8 -20 -17 -46 -19 -58 -5 -23 -111 -330 -125 -361 -5 -11
-15 -36 -21 -55 -30 -81 -93 -202 -124 -234 -30 -33 -35 -35 -67 -26 -44 13
-77 47 -84 89 -3 19 -8 38 -11 43 -3 4 -2 8 3 8 4 0 8 14 7 31 -1 36 5 70 39
224 3 11 11 40 18 65 7 25 14 54 16 65 8 45 174 587 193 630 8 18 21 59 26 78
1 4 3 9 4 12 1 3 3 8 5 13 1 4 4 14 8 22 3 8 40 119 83 245 42 127 99 291 126
365 27 74 50 140 52 145 2 6 8 23 14 38 7 16 12 30 12 31 0 2 7 20 15 40 8 20
15 37 14 38 -1 2 10 24 25 50 14 26 26 54 26 62 0 9 3 16 8 16 4 0 16 15 26
34 10 19 28 39 39 44 28 14 25 14 50 1z m-1213 -54 c34 -23 111 -129 116 -157
12 -78 7 -102 -38 -168 -46 -70 -331 -360 -352 -360 -3 0 -18 -12 -33 -26 -15
-15 -66 -56 -113 -92 -47 -37 -87 -69 -90 -72 -3 -3 -36 -29 -74 -59 -38 -29
-78 -61 -90 -71 -179 -151 -215 -183 -218 -192 -5 -15 19 -39 55 -55 15 -7 27
-17 27 -23 0 -5 6 -10 13 -10 7 0 22 -8 33 -17 26 -24 343 -236 366 -245 10
-4 18 -12 18 -18 0 -5 5 -10 10 -10 22 0 233 -155 369 -270 107 -90 149 -139
162 -184 40 -146 -97 -316 -254 -316 -50 0 -182 63 -385 183 -35 20 -67 37
-73 37 -5 0 -9 5 -9 10 0 6 -7 10 -15 10 -8 0 -15 5 -15 10 0 6 -7 10 -15 10
-8 0 -15 5 -15 10 0 6 -4 10 -9 10 -19 0 -515 323 -549 357 -7 7 -19 13 -27
13 -7 0 -15 4 -17 8 -1 5 -61 50 -133 102 -112 80 -226 169 -313 245 -143 124
-47 270 412 630 21 17 53 42 70 57 17 15 37 28 44 28 6 0 12 4 12 8 0 5 21 24
48 42 26 19 49 38 50 42 2 4 7 8 11 8 6 0 280 199 361 263 9 7 38 28 65 47 28
19 52 38 53 42 2 4 7 8 12 8 5 0 49 27 98 60 50 33 93 60 97 60 4 0 19 9 34
19 15 11 60 31 99 44 85 29 142 23 202 -18z m1985 -40 c102 -49 295 -156 401
-221 39 -24 76 -44 82 -44 7 0 12 -4 12 -8 0 -5 12 -15 28 -23 15 -7 47 -27
72 -44 25 -16 48 -30 52 -30 4 0 16 -7 26 -16 10 -9 33 -24 50 -35 18 -10 32
-22 32 -26 0 -4 5 -8 12 -8 10 0 145 -86 158 -101 3 -3 34 -25 70 -49 62 -42
222 -162 246 -185 6 -5 28 -26 50 -45 119 -108 154 -202 108 -291 -23 -46
-176 -194 -312 -304 -34 -27 -62 -53 -62 -57 0 -5 -6 -8 -14 -8 -8 0 -16 -4
-18 -8 -1 -4 -23 -23 -48 -42 -25 -19 -47 -37 -50 -40 -3 -3 -25 -21 -50 -40
-25 -19 -50 -39 -57 -45 -6 -5 -24 -20 -40 -32 -82 -62 -149 -113 -158 -120
-6 -5 -28 -21 -50 -38 -22 -16 -44 -33 -50 -38 -45 -36 -307 -217 -315 -217
-5 0 -10 -5 -10 -10 0 -6 -7 -13 -16 -17 -14 -5 -136 -83 -159 -101 -22 -18
-123 -63 -141 -63 -153 -3 -322 227 -259 352 18 34 140 159 228 234 26 22 62
53 80 68 18 16 57 47 87 70 30 23 57 45 60 48 4 6 412 311 538 403 91 66 97
50 -61 156 -78 52 -144 97 -147 101 -3 3 -10 8 -15 10 -19 8 -430 284 -433
292 -2 4 -10 7 -18 7 -8 0 -14 3 -14 8 -1 4 -25 23 -55 42 -30 19 -55 38 -55
43 0 4 -5 7 -11 7 -13 0 -209 158 -210 170 -1 6 -2 16 -3 23 -3 21 44 137 57
137 4 0 7 6 7 13 0 31 170 185 191 172 4 -3 10 -1 13 4 9 14 69 -5 171 -54z"/>
</g>
</svg>
