<svg width="82" height="10" viewBox="0 0 82 10" fill="none" xmlns="http://www.w3.org/2000/svg">
<g clip-path="url(#clip0_108_6)">
<path d="M7.81619 0.209949C5.7319 0.209949 4.42905 1.25233 3.9081 3.33662C4.69 2.29471 5.60143 1.90328 6.64381 2.16423C7.23857 2.31281 7.66333 2.74423 8.13429 3.22138C8.9 3.99947 9.78714 4.89995 11.7248 4.89995C13.8086 4.89995 15.1114 3.85757 15.6324 1.77328C14.851 2.81566 13.939 3.20662 12.8967 2.94566C12.3024 2.79709 11.8776 2.36566 11.4067 1.88852C10.6405 1.11043 9.75333 0.209473 7.81619 0.209473V0.209949ZM3.9081 4.89995C1.82381 4.89995 0.520952 5.94233 0 8.02662C0.781429 6.98423 1.69333 6.59328 2.73571 6.85376C3.33048 7.00281 3.75524 7.43376 4.22619 7.91138C4.9919 8.68947 5.87905 9.58947 7.81667 9.58947C9.90048 9.58947 11.2033 8.54757 11.7243 6.46328C10.9429 7.50519 10.031 7.89614 8.98857 7.63566C8.39429 7.48709 7.96952 7.05566 7.49857 6.57852C6.7319 5.80043 5.84524 4.89995 3.9081 4.89995Z" fill="#38BDF8"/>
<path d="M23.8738 3.60762V2.48381H22.5348V0.972381L21.3681 1.3181V2.48476H20.3748V3.6081H21.3681V6.2C21.3681 7.60429 22.0809 8.10095 23.8738 7.88476V6.83714C22.9881 6.88048 22.5348 6.89143 22.5348 6.2V3.60762H23.8738ZM28.9876 2.48429V3.25095C28.5771 2.68905 27.94 2.34381 27.0971 2.34381C25.6286 2.34381 24.4081 3.57524 24.4081 5.18429C24.4081 6.78286 25.6286 8.02476 27.0976 8.02476C27.94 8.02476 28.5771 7.67905 28.9876 7.10667V7.88428H30.1543V2.48429H28.9876ZM27.2809 6.91286C26.309 6.91286 25.5743 6.18905 25.5743 5.18429C25.5743 4.17952 26.309 3.45619 27.2809 3.45619C28.2529 3.45619 28.9876 4.18 28.9876 5.18476C28.9876 6.18857 28.2529 6.91238 27.2809 6.91238V6.91286ZM32.0967 1.67429C32.5071 1.67429 32.8419 1.32857 32.8419 0.929048C32.8419 0.518571 32.5071 0.18381 32.0967 0.18381C31.6862 0.18381 31.3514 0.518571 31.3514 0.929048C31.3514 1.32857 31.6867 1.67429 32.0967 1.67429ZM31.5143 7.88428H32.6809V2.48429H31.5143V7.88428ZM34.0343 7.88428H35.2009V0H34.0343V7.88428ZM42.7762 2.48429L41.7181 6.21048L40.5948 2.48429H39.4824L38.3481 6.21048L37.3005 2.48429H36.0695L37.7648 7.88428H38.91L40.0438 4.24476L41.1676 7.88428H42.3119L44.0076 2.48429H42.7762ZM45.45 1.67429C45.8605 1.67429 46.1952 1.32857 46.1952 0.929048C46.1952 0.518571 45.8605 0.18381 45.45 0.18381C45.0395 0.18381 44.7048 0.518571 44.7048 0.929048C44.7048 1.32857 45.0395 1.67429 45.45 1.67429ZM44.8667 7.88428H46.0333V2.48429H44.8667V7.88428ZM50.2281 2.34381C49.4938 2.34381 48.9105 2.61381 48.5543 3.17524V2.48429H47.3876V7.88428H48.5543V4.99048C48.5543 3.88857 49.159 3.43524 49.9257 3.43524C50.6605 3.43524 51.1357 3.86714 51.1357 4.68762V7.88476H52.3019V4.56857C52.3019 3.16476 51.4381 2.34381 50.2281 2.34381ZM57.8352 0.32381V3.25095C57.4248 2.68905 56.7876 2.34381 55.9448 2.34381C54.4762 2.34381 53.2557 3.57524 53.2557 5.18429C53.2557 6.78286 54.4762 8.02476 55.9448 8.02476C56.7876 8.02476 57.4248 7.67905 57.8352 7.10667V7.88428H59.0014V0.32381H57.8352ZM56.1286 6.91238C55.1567 6.91238 54.4219 6.18857 54.4219 5.18429C54.4219 4.17952 55.1567 3.45619 56.1286 3.45619C57.1005 3.45619 57.8352 4.18 57.8352 5.18476C57.8352 6.18857 57.1005 6.91238 56.1286 6.91238Z" fill="black"/>
<path d="M63.4195 2.31371H61.3424V7.88466H62.4405V6.05418H63.4195C64.4938 6.05418 65.3215 5.22657 65.3215 4.18371C65.3215 3.14133 64.4938 2.31371 63.4195 2.31371ZM63.4195 5.02752H62.4405V3.34038H63.4195C63.8891 3.34038 64.2315 3.69847 64.2315 4.18371C64.2315 4.66133 63.8891 5.02752 63.4195 5.02752ZM67.9305 6.83418V2.31371H66.8324V7.88466H70.0557V6.83418H67.9305ZM75.2119 7.88466H76.4057L74.4481 2.31323H73.0872L71.1372 7.88466H72.3234L72.6572 6.8818H74.8776L75.2119 7.88466ZM73.0076 5.85514L73.7715 3.57895L74.5357 5.85514H73.0076ZM81.4286 2.31371H80.1872L78.9776 4.63752L77.7676 2.31371H76.5262L78.4286 5.7118V7.88466H79.5186V5.7118L81.4286 2.31371Z" fill="#38BDF8"/>
</g>
<defs>
<clipPath id="clip0_108_6">
<rect width="81.4286" height="10" fill="white"/>
</clipPath>
</defs>
</svg>
